<?xml version="1.0" encoding="UTF-8"?>
<svg xmlns="http://www.w3.org/2000/svg" xmlns:xlink="http://www.w3.org/1999/xlink" width="50pt" height="50pt" viewBox="0 0 50 50" version="1.1">
<g id="surface1">
<path style=" stroke:none;fill-rule:nonzero;fill:#FFFFFF;fill-opacity:1;" d="M 19.71875 0.402344 C 16.066406 0.46875 13.402344 1.589844 11.78125 3.71875 C 9.863281 6.246094 9.515625 10.0625 10.726563 15.097656 C 10.28125 15.644531 9.945313 16.472656 10.074219 17.578125 C 10.339844 19.765625 11.1875 20.664063 11.90625 21.019531 C 12.246094 22.734375 13.191406 24.664063 14.105469 25.578125 L 14.105469 26.042969 C 14.113281 27.050781 14.109375 27.921875 14.011719 29.050781 C 13.40625 30.445313 11.386719 31.261719 9.050781 32.179688 C 5.175781 33.703125 0.359375 35.585938 0 41.605469 L -0.0625 42.660156 L 26.878906 42.660156 C 28.765625 46.746094 32.910156 49.601563 37.699219 49.601563 C 44.261719 49.601563 49.601563 44.261719 49.601563 37.699219 C 49.601563 31.132813 44.261719 25.792969 37.699219 25.792969 C 33.621094 25.792969 30.019531 27.835938 27.871094 30.972656 C 27.160156 30.609375 26.585938 30.21875 26.164063 29.761719 C 25.988281 29.566406 25.820313 29.335938 25.699219 29.050781 C 25.605469 27.921875 25.632813 27.046875 25.636719 26.042969 L 25.636719 25.578125 C 26.527344 24.667969 27.441406 22.734375 27.777344 21.019531 C 28.496094 20.660156 29.34375 19.765625 29.605469 17.578125 C 29.738281 16.496094 29.421875 15.675781 28.988281 15.128906 C 29.5625 13.164063 30.742188 8.078125 28.707031 4.804688 C 27.855469 3.433594 26.566406 2.570313 24.863281 2.230469 C 23.925781 1.050781 22.128906 0.402344 19.71875 0.402344 Z M 37.699219 27.777344 C 43.171875 27.777344 47.617188 32.226563 47.617188 37.699219 C 47.617188 43.171875 43.171875 47.617188 37.699219 47.617188 C 32.226563 47.617188 27.777344 43.171875 27.777344 37.699219 C 27.777344 32.226563 32.226563 27.777344 37.699219 27.777344 Z M 36.707031 31.746094 L 36.707031 36.707031 L 31.746094 36.707031 L 31.746094 38.691406 L 36.707031 38.691406 L 36.707031 43.652344 L 38.691406 43.652344 L 38.691406 38.691406 L 43.652344 38.691406 L 43.652344 36.707031 L 38.691406 36.707031 L 38.691406 31.746094 Z M 26.226563 34.566406 C 26.160156 34.804688 26.09375 35.039063 26.042969 35.28125 C 26.09375 35.035156 26.160156 34.804688 26.226563 34.566406 Z M 25.855469 36.582031 C 25.820313 36.949219 25.792969 37.320313 25.792969 37.699219 C 25.792969 37.324219 25.820313 36.949219 25.855469 36.582031 Z "/>
</g>
</svg>
