<?xml version="1.0" encoding="UTF-8"?>
<svg xmlns="http://www.w3.org/2000/svg" xmlns:xlink="http://www.w3.org/1999/xlink" width="50pt" height="50pt" viewBox="0 0 50 50" version="1.1">
<g id="surface1">
<path style=" stroke:none;fill-rule:nonzero;fill:#FFFFFF;fill-opacity:1;" d="M 21.113281 1.984375 C 17.566406 2.050781 14.949219 3.152344 13.363281 5.269531 C 11.480469 7.773438 11.125 11.648438 12.339844 16.492188 C 11.910156 17.035156 11.621094 17.863281 11.75 18.941406 C 12 21.089844 12.820313 21.960938 13.515625 22.320313 C 13.855469 24.046875 14.789063 26.003906 15.6875 26.878906 C 15.859375 28.289063 15.796875 28.984375 15.5625 30.195313 C 15 31.589844 13.027344 32.386719 10.757813 33.296875 C 7.003906 34.800781 2.332031 36.664063 1.984375 42.597656 L 1.921875 43.652344 L 27.40625 43.652344 C 29.46875 47.203125 33.304688 49.601563 37.699219 49.601563 C 44.261719 49.601563 49.601563 44.261719 49.601563 37.699219 C 49.601563 31.324219 44.558594 26.121094 38.257813 25.824219 C 38.15625 25.109375 38.15625 24.394531 38.257813 23.746094 C 39.074219 22.960938 39.824219 21.257813 40.117188 19.808594 C 40.742188 19.464844 41.445313 18.65625 41.667969 16.804688 C 41.773438 15.875 41.5 15.15625 41.140625 14.664063 C 41.769531 12.371094 42.335938 8.207031 40.707031 5.640625 C 40.003906 4.539063 38.945313 3.832031 37.636719 3.566406 C 36.816406 2.550781 35.277344 1.984375 33.234375 1.984375 C 31.59375 2.015625 30.191406 2.3125 29.019531 2.851563 C 29.910156 3.410156 30.6875 4.152344 31.28125 5.085938 C 33.585938 8.707031 32.726563 13.980469 32.210938 16.214844 C 32.625 17.097656 32.769531 18.132813 32.644531 19.191406 C 32.378906 21.476563 31.523438 22.78125 30.660156 23.53125 C 30.277344 24.960938 29.566406 26.621094 28.644531 27.777344 C 28.609375 28.339844 28.652344 28.960938 28.769531 29.542969 C 28.796875 29.582031 28.863281 29.636719 28.925781 29.699219 C 28.480469 30.1875 28.074219 30.691406 27.714844 31.25 C 27.324219 30.914063 27.03125 30.582031 26.878906 30.195313 C 26.625 29.097656 26.59375 27.914063 26.753906 26.910156 C 27.6875 26.039063 28.597656 24.007813 28.925781 22.320313 C 29.621094 21.960938 30.441406 21.085938 30.691406 18.941406 C 30.820313 17.875 30.496094 17.066406 30.070313 16.523438 C 30.800781 13.914063 31.484375 9.085938 29.605469 6.136719 C 28.796875 4.863281 27.617188 4.074219 26.105469 3.78125 C 25.1875 2.617188 23.449219 1.984375 21.113281 1.984375 Z M 37.699219 27.777344 C 43.191406 27.777344 47.617188 32.207031 47.617188 37.699219 C 47.617188 43.191406 43.191406 47.617188 37.699219 47.617188 C 32.207031 47.617188 27.777344 43.191406 27.777344 37.699219 C 27.777344 32.207031 32.207031 27.777344 37.699219 27.777344 Z M 36.707031 31.746094 L 36.707031 36.707031 L 31.746094 36.707031 L 31.746094 38.691406 L 36.707031 38.691406 L 36.707031 43.652344 L 38.691406 43.652344 L 38.691406 38.691406 L 43.652344 38.691406 L 43.652344 36.707031 L 38.691406 36.707031 L 38.691406 31.746094 Z "/>
</g>
</svg>
