<?xml version="1.0" encoding="UTF-8"?>
<svg xmlns="http://www.w3.org/2000/svg" xmlns:xlink="http://www.w3.org/1999/xlink" width="50pt" height="50pt" viewBox="0 0 50 50" version="1.1">
<g id="surface1">
<path style=" stroke:none;fill-rule:nonzero;fill:#000000;fill-opacity:1;" d="M 20.832031 0 C 14.871094 0 11.355469 3.25 10.230469 6.105469 C 7.152344 6.679688 4.378906 8.742188 2.976563 11.964844 C 1.535156 15.277344 1.597656 19.730469 3.875 24.738281 C 2.585938 26.421875 1.835938 28.585938 2.199219 30.785156 C 2.558594 32.957031 4.0625 34.976563 6.664063 36.179688 C 5.613281 38.613281 5.953125 40.988281 7.285156 42.660156 C 8.667969 44.394531 10.921875 45.347656 13.269531 45.511719 C 13.960938 47.328125 15.25 48.535156 16.648438 49.046875 C 18.230469 49.621094 19.835938 49.601563 20.832031 49.601563 C 22.464844 49.601563 23.898438 48.824219 24.800781 47.617188 C 25.703125 48.820313 27.140625 49.589844 28.769531 49.601563 C 29.878906 49.609375 31.488281 49.332031 33.046875 48.488281 C 34.425781 47.742188 35.648438 46.414063 36.335938 44.582031 C 38.558594 44.503906 40.761719 44.039063 42.226563 42.628906 C 43.027344 41.851563 43.546875 40.78125 43.621094 39.527344 C 43.679688 38.535156 43.390625 37.410156 42.90625 36.210938 C 45.542969 35.015625 47.109375 33 47.496094 30.816406 C 47.886719 28.621094 47.097656 26.425781 45.726563 24.738281 C 48.007813 19.730469 48.070313 15.277344 46.628906 11.964844 C 45.222656 8.742188 42.449219 6.679688 39.371094 6.105469 C 38.25 3.25 34.734375 0 28.769531 0 C 27.296875 0 25.910156 0.378906 25.019531 1.519531 C 24.9375 1.625 24.871094 1.746094 24.800781 1.859375 C 24.730469 1.746094 24.664063 1.625 24.585938 1.519531 C 23.691406 0.378906 22.304688 0 20.832031 0 Z M 20.832031 1.984375 C 22.027344 1.984375 22.605469 2.183594 23.035156 2.726563 C 23.464844 3.273438 23.808594 4.460938 23.808594 6.601563 L 23.808594 44.644531 C 23.808594 46.453125 22.609375 47.617188 20.832031 47.617188 C 19.84375 47.617188 18.476563 47.605469 17.332031 47.183594 C 16.183594 46.765625 15.265625 46.0625 14.851563 44.394531 L 14.664063 43.652344 L 13.890625 43.652344 C 11.878906 43.652344 9.898438 42.746094 8.835938 41.417969 C 7.773438 40.089844 7.457031 38.40625 8.773438 36.210938 L 9.425781 35.15625 L 8.246094 34.785156 C 5.558594 33.890625 4.449219 32.25 4.152344 30.476563 C 3.867188 28.730469 4.488281 26.804688 5.613281 25.546875 C 5.632813 25.527344 5.652344 25.507813 5.671875 25.484375 L 5.703125 25.453125 C 5.703125 25.453125 8.113281 22.816406 10.914063 22.816406 C 14.445313 22.816406 16.183594 24.523438 16.183594 24.523438 C 16.425781 24.8125 16.820313 24.9375 17.183594 24.84375 C 17.550781 24.75 17.832031 24.453125 17.910156 24.085938 C 17.988281 23.710938 17.84375 23.328125 17.546875 23.097656 C 17.546875 23.097656 15.125 20.832031 10.914063 20.832031 C 8.4375 20.832031 6.429688 22.125 5.269531 23.097656 C 3.539063 18.851563 3.6875 15.335938 4.804688 12.773438 C 6.03125 9.957031 8.414063 8.25 11.003906 7.9375 L 11.6875 7.84375 L 11.84375 7.222656 C 12.378906 5.355469 15.269531 1.984375 20.832031 1.984375 Z M 28.769531 1.984375 C 34.335938 1.984375 37.226563 5.355469 37.761719 7.222656 L 37.914063 7.84375 L 38.597656 7.9375 C 41.191406 8.25 43.574219 9.957031 44.796875 12.773438 C 45.894531 15.292969 46.066406 18.730469 44.425781 22.878906 C 44.136719 23.015625 43.929688 23.277344 43.867188 23.59375 C 43.867188 23.59375 43.667969 24.515625 42.566406 25.578125 C 41.464844 26.636719 39.476563 27.777344 35.714844 27.777344 C 35.359375 27.773438 35.023438 27.960938 34.84375 28.269531 C 34.664063 28.578125 34.664063 28.960938 34.84375 29.269531 C 35.023438 29.578125 35.359375 29.765625 35.714844 29.761719 C 39.886719 29.761719 42.460938 28.421875 43.929688 27.003906 C 44.183594 26.761719 44.390625 26.53125 44.582031 26.289063 C 45.402344 27.484375 45.796875 29.007813 45.542969 30.445313 C 45.226563 32.210938 44.050781 33.886719 41.355469 34.785156 L 40.273438 35.125 L 40.769531 36.148438 C 41.457031 37.53125 41.683594 38.613281 41.636719 39.402344 C 41.589844 40.195313 41.3125 40.738281 40.828125 41.203125 C 39.878906 42.117188 37.941406 42.640625 35.839844 42.660156 C 34.566406 42.207031 33.578125 41.554688 32.894531 40.675781 C 32.175781 39.753906 31.746094 38.523438 31.746094 36.707031 C 31.753906 36.398438 31.617188 36.109375 31.382813 35.914063 C 31.148438 35.722656 30.835938 35.648438 30.535156 35.714844 C 30.074219 35.820313 29.75 36.234375 29.761719 36.707031 C 29.761719 38.855469 30.324219 40.605469 31.34375 41.914063 C 32.160156 42.964844 33.246094 43.683594 34.472656 44.207031 C 33.960938 45.414063 33.082031 46.210938 32.085938 46.75 C 30.882813 47.402344 29.5 47.621094 28.769531 47.617188 C 26.988281 47.605469 25.792969 46.453125 25.792969 44.644531 L 25.792969 6.601563 C 25.792969 4.460938 26.136719 3.273438 26.570313 2.726563 C 27 2.183594 27.578125 1.984375 28.769531 1.984375 Z M 18.757813 9.890625 C 18.714844 9.898438 18.671875 9.910156 18.632813 9.921875 C 18.171875 10.023438 17.84375 10.441406 17.855469 10.914063 C 17.855469 11.078125 17.6875 11.890625 17.019531 12.554688 C 16.355469 13.222656 15.179688 13.890625 12.898438 13.890625 C 12.539063 13.886719 12.207031 14.070313 12.023438 14.382813 C 11.847656 14.691406 11.847656 15.070313 12.023438 15.378906 C 12.207031 15.691406 12.539063 15.875 12.898438 15.871094 C 15.574219 15.871094 17.378906 15.050781 18.445313 13.980469 C 19.511719 12.914063 19.839844 11.738281 19.839844 10.914063 C 19.851563 10.625 19.738281 10.351563 19.53125 10.15625 C 19.320313 9.960938 19.039063 9.863281 18.757813 9.890625 Z M 32.644531 11.875 C 32.601563 11.882813 32.558594 11.894531 32.519531 11.90625 C 32.058594 12.007813 31.734375 12.425781 31.746094 12.898438 C 31.746094 14.21875 32.335938 15.902344 33.761719 17.332031 C 35.1875 18.757813 37.476563 19.839844 40.675781 19.839844 C 41.03125 19.84375 41.363281 19.660156 41.546875 19.347656 C 41.726563 19.039063 41.726563 18.660156 41.546875 18.347656 C 41.363281 18.039063 41.03125 17.851563 40.675781 17.855469 C 37.917969 17.855469 36.242188 16.957031 35.1875 15.902344 C 34.132813 14.851563 33.730469 13.558594 33.730469 12.898438 C 33.742188 12.609375 33.625 12.335938 33.421875 12.140625 C 33.210938 11.945313 32.929688 11.847656 32.644531 11.875 Z M 10.664063 29.761719 C 10.117188 29.777344 9.6875 30.238281 9.703125 30.785156 C 9.71875 31.332031 10.179688 31.761719 10.726563 31.746094 C 13.394531 32.1875 14.539063 33.609375 15.191406 35.125 C 15.84375 36.640625 15.871094 38.195313 15.871094 38.691406 C 15.871094 39.046875 16.054688 39.378906 16.363281 39.5625 C 16.675781 39.742188 17.054688 39.742188 17.363281 39.5625 C 17.675781 39.378906 17.859375 39.046875 17.855469 38.691406 C 17.855469 38.199219 17.855469 36.277344 17.019531 34.320313 C 16.183594 32.363281 14.367188 30.3125 11.066406 29.761719 C 10.964844 29.746094 10.863281 29.746094 10.757813 29.761719 C 10.726563 29.761719 10.695313 29.761719 10.664063 29.761719 Z "/>
</g>
</svg>
