<?xml version="1.0" encoding="UTF-8"?>
<svg xmlns="http://www.w3.org/2000/svg" xmlns:xlink="http://www.w3.org/1999/xlink" width="50pt" height="50pt" viewBox="0 0 50 50" version="1.1">
<g id="surface1">
<path style=" stroke:none;fill-rule:nonzero;fill:#000000;fill-opacity:1;" d="M 44.910156 22.648438 L 43.410156 21.746094 C 42.777344 21.367188 42.34375 20.738281 42.152344 20.019531 C 42.144531 20.007813 42.140625 19.992188 42.140625 19.980469 C 41.941406 19.261719 42 18.492188 42.363281 17.835938 L 43.207031 16.304688 C 44.074219 14.75 42.960938 12.832031 41.183594 12.796875 L 39.421875 12.773438 C 38.675781 12.757813 37.988281 12.425781 37.460938 11.898438 C 37.457031 11.898438 37.449219 11.890625 37.445313 11.886719 C 36.917969 11.359375 36.582031 10.664063 36.574219 9.917969 L 36.542969 8.164063 C 36.511719 6.378906 34.589844 5.269531 33.035156 6.136719 L 31.507813 6.984375 C 30.859375 7.34375 30.085938 7.40625 29.359375 7.207031 C 29.347656 7.203125 29.335938 7.203125 29.324219 7.195313 C 28.609375 6.996094 27.980469 6.566406 27.59375 5.929688 L 26.703125 4.441406 C 25.78125 2.910156 23.566406 2.910156 22.648438 4.441406 L 21.753906 5.921875 C 21.367188 6.566406 20.734375 7.003906 20.011719 7.195313 C 20.007813 7.203125 20 7.203125 19.992188 7.203125 C 19.261719 7.40625 18.492188 7.34375 17.828125 6.976563 L 16.304688 6.136719 C 14.75 5.269531 12.832031 6.378906 12.796875 8.160156 L 12.773438 9.917969 C 12.757813 10.664063 12.425781 11.351563 11.898438 11.878906 C 11.890625 11.886719 11.886719 11.890625 11.886719 11.898438 C 11.359375 12.425781 10.664063 12.757813 9.917969 12.765625 L 8.160156 12.796875 C 6.378906 12.832031 5.269531 14.75 6.136719 16.304688 L 6.984375 17.835938 C 7.34375 18.492188 7.40625 19.253906 7.207031 19.980469 C 7.203125 19.992188 7.203125 20.007813 7.195313 20.019531 C 6.996094 20.734375 6.566406 21.363281 5.929688 21.746094 L 4.441406 22.640625 C 2.910156 23.558594 2.910156 25.777344 4.441406 26.695313 L 5.929688 27.59375 C 6.566406 27.972656 7.003906 28.601563 7.195313 29.316406 C 7.195313 29.335938 7.203125 29.347656 7.207031 29.359375 C 7.40625 30.082031 7.34375 30.851563 6.984375 31.507813 L 6.136719 33.035156 C 5.269531 34.589844 6.378906 36.511719 8.160156 36.542969 L 9.917969 36.570313 C 10.664063 36.582031 11.359375 36.917969 11.886719 37.445313 C 11.886719 37.449219 11.890625 37.457031 11.898438 37.457031 C 12.425781 37.984375 12.757813 38.675781 12.773438 39.421875 L 12.796875 41.175781 C 12.832031 42.960938 14.75 44.074219 16.304688 43.207031 L 17.835938 42.359375 C 18.484375 41.992188 19.253906 41.933594 19.980469 42.132813 C 19.992188 42.140625 20.007813 42.140625 20.019531 42.144531 C 20.734375 42.339844 21.363281 42.769531 21.746094 43.40625 L 22.640625 44.902344 C 23.558594 46.433594 25.777344 46.433594 26.695313 44.902344 L 27.589844 43.40625 C 27.972656 42.769531 28.601563 42.339844 29.316406 42.144531 C 29.328125 42.140625 29.34375 42.140625 29.355469 42.132813 C 30.082031 41.933594 30.851563 41.992188 31.507813 42.359375 L 33.03125 43.207031 C 34.589844 44.074219 36.503906 42.960938 36.539063 41.175781 L 36.570313 39.421875 C 36.582031 38.675781 36.910156 37.984375 37.4375 37.457031 C 37.445313 37.457031 37.449219 37.449219 37.457031 37.445313 C 37.984375 36.917969 38.671875 36.582031 39.414063 36.570313 L 41.175781 36.542969 C 42.957031 36.511719 44.066406 34.589844 43.199219 33.035156 L 42.359375 31.507813 C 41.992188 30.851563 41.933594 30.085938 42.132813 29.359375 C 42.132813 29.347656 42.140625 29.335938 42.140625 29.324219 C 42.339844 28.609375 42.769531 27.980469 43.40625 27.59375 L 44.902344 26.695313 C 46.433594 25.78125 46.433594 23.558594 44.910156 22.648438 Z M 34.058594 20.898438 L 23.269531 31.6875 C 22.960938 31.996094 22.539063 32.167969 22.109375 32.167969 C 21.671875 32.167969 21.253906 31.996094 20.945313 31.6875 L 15.265625 26.007813 C 14.621094 25.363281 14.621094 24.324219 15.265625 23.683594 C 15.90625 23.039063 16.949219 23.039063 17.589844 23.683594 L 22.109375 28.199219 L 31.730469 18.574219 C 32.375 17.929688 33.414063 17.929688 34.058594 18.574219 C 34.699219 19.214844 34.699219 20.257813 34.058594 20.898438 Z "/>
</g>
</svg>
