<?xml version="1.0" encoding="UTF-8"?>
<svg xmlns="http://www.w3.org/2000/svg" xmlns:xlink="http://www.w3.org/1999/xlink" width="52pt" height="52pt" viewBox="0 0 52 52" version="1.1">
<g id="surface1">
<path style=" stroke:none;fill-rule:nonzero;fill:#000000;fill-opacity:1;" d="M 4.554688 0 L 0 4.554688 L 10.28125 11.757813 L 11.757813 10.28125 Z M 38.65625 0.308594 C 35.445313 0.460938 32.363281 1.863281 29.976563 4.246094 L 20.742188 13.480469 L 25.296875 18.035156 L 34.53125 8.800781 C 35.785156 7.546875 37.355469 6.777344 38.964844 6.710938 C 40.054688 6.65625 41.601563 6.886719 42.964844 8.25 C 44.234375 9.519531 44.503906 10.996094 44.503906 12.003906 C 44.503906 13.6875 43.734375 15.363281 42.410156 16.679688 L 33.175781 25.914063 L 37.730469 30.46875 L 46.964844 21.234375 C 49.472656 18.726563 50.90625 15.371094 50.90625 12.003906 C 50.90625 8.871094 49.71875 5.894531 47.519531 3.691406 C 45.164063 1.347656 42.003906 0.152344 38.65625 0.308594 Z M 13.480469 20.742188 L 4.246094 29.976563 C 1.738281 32.484375 0.308594 35.839844 0.308594 39.210938 C 0.308594 42.339844 1.492188 45.320313 3.691406 47.519531 C 6.046875 49.867188 9.210938 51.058594 12.558594 50.90625 C 15.765625 50.75 18.851563 49.351563 21.234375 46.964844 L 30.46875 37.730469 L 25.914063 33.175781 L 16.679688 42.410156 C 15.425781 43.664063 13.855469 44.433594 12.25 44.503906 C 11.15625 44.558594 9.609375 44.324219 8.25 42.964844 C 6.980469 41.695313 6.710938 40.21875 6.710938 39.210938 C 6.710938 37.523438 7.480469 35.847656 8.800781 34.53125 L 18.035156 25.296875 Z M 40.933594 39.457031 L 39.457031 40.933594 L 46.65625 51.210938 L 51.210938 46.65625 Z "/>
</g>
</svg>
