<?xml version="1.0" encoding="UTF-8"?>
<svg xmlns="http://www.w3.org/2000/svg" xmlns:xlink="http://www.w3.org/1999/xlink" width="50pt" height="50pt" viewBox="0 0 50 50" version="1.1">
<g id="surface1">
<path style=" stroke:none;fill-rule:nonzero;fill:#000000;fill-opacity:1;" d="M 9.425781 2.976563 C 6.964844 2.976563 4.960938 4.980469 4.960938 7.441406 C 4.960938 9.902344 6.964844 11.90625 9.425781 11.90625 C 11.886719 11.90625 13.890625 9.902344 13.890625 7.441406 C 13.890625 4.980469 11.886719 2.976563 9.425781 2.976563 Z M 40.179688 2.976563 C 37.71875 2.976563 35.714844 4.980469 35.714844 7.441406 C 35.714844 9.902344 37.71875 11.90625 40.179688 11.90625 C 42.640625 11.90625 44.644531 9.902344 44.644531 7.441406 C 44.644531 4.980469 42.640625 2.976563 40.179688 2.976563 Z M 9.386719 13.890625 C 5.027344 13.890625 1.984375 17.410156 1.984375 22.457031 L 1.984375 31.640625 L 4.355469 32.886719 L 5.316406 46.628906 L 13.53125 46.628906 L 14.492188 32.886719 L 16.863281 31.640625 L 16.863281 22.457031 C 16.863281 17.492188 13.71875 13.890625 9.386719 13.890625 Z M 40.136719 13.890625 C 35.78125 13.890625 32.738281 17.410156 32.738281 22.457031 L 32.738281 31.640625 L 35.109375 32.886719 L 36.070313 46.628906 L 44.285156 46.628906 L 45.246094 32.886719 L 47.617188 31.640625 L 47.617188 22.457031 C 47.617188 17.492188 44.472656 13.890625 40.136719 13.890625 Z M 18.847656 20.832031 L 18.847656 22.816406 L 30.753906 22.816406 L 30.753906 20.832031 Z M 18.847656 26.785156 L 18.847656 28.769531 L 30.753906 28.769531 L 30.753906 26.785156 Z "/>
</g>
</svg>
