<?xml version="1.0" encoding="UTF-8"?>
<svg xmlns="http://www.w3.org/2000/svg" xmlns:xlink="http://www.w3.org/1999/xlink" width="50pt" height="50pt" viewBox="0 0 50 50" version="1.1">
<g id="surface1">
<path style=" stroke:none;fill-rule:nonzero;fill:#000000;fill-opacity:1;" d="M 36.183594 6.578125 C 35.277344 6.578125 34.539063 7.316406 34.539063 8.222656 L 34.539063 42.761719 L 44.40625 42.761719 L 44.40625 8.222656 C 44.40625 7.316406 43.667969 6.578125 42.761719 6.578125 Z M 6.578125 13.15625 C 5.671875 13.15625 4.933594 13.898438 4.933594 14.800781 L 4.933594 42.761719 L 14.800781 42.761719 L 14.800781 14.800781 C 14.800781 13.898438 14.0625 13.15625 13.15625 13.15625 Z M 21.382813 19.738281 C 20.476563 19.738281 19.738281 20.476563 19.738281 21.382813 L 19.738281 42.761719 L 29.605469 42.761719 L 29.605469 21.382813 C 29.605469 20.476563 28.867188 19.738281 27.960938 19.738281 Z "/>
</g>
</svg>
