<?xml version="1.0" encoding="UTF-8"?>
<svg xmlns="http://www.w3.org/2000/svg" xmlns:xlink="http://www.w3.org/1999/xlink" width="50pt" height="50pt" viewBox="0 0 50 50" version="1.1">
<g id="surface1">
<path style=" stroke:none;fill-rule:nonzero;fill:#000000;fill-opacity:1;" d="M 26.691406 4.960938 C 17.894531 4.960938 14.628906 11.757813 17.144531 17.515625 C 16.832031 17.726563 16.328125 18.378906 16.429688 19.53125 C 16.640625 21.625 17.582031 22.125 18.105469 22.226563 C 18.3125 24.214844 19.574219 26.535156 20.304688 26.847656 C 20.304688 28.207031 20.285156 29.347656 20.183594 30.816406 C 18.578125 35.027344 8.324219 34.050781 7.007813 41.605469 C 6.949219 41.933594 7.289063 42.660156 7.96875 42.660156 L 41.667969 42.660156 C 42.675781 42.660156 42.65625 41.914063 42.597656 41.574219 C 41.257813 34.050781 31.023438 35.023438 29.421875 30.816406 C 29.316406 29.242188 29.296875 28.207031 29.296875 26.847656 C 30.027344 26.535156 31.195313 24.113281 31.40625 22.226563 C 31.929688 22.226563 32.765625 21.597656 33.078125 19.5 C 33.183594 18.347656 32.753906 17.621094 32.335938 17.515625 C 34.007813 15.421875 33.707031 6.851563 27.53125 6.851563 Z M 15.035156 9.921875 C 8.414063 10.03125 5.511719 15.304688 7.503906 19.808594 C 7.289063 19.914063 6.871094 20.46875 6.976563 21.421875 C 7.1875 23.121094 7.820313 23.53125 8.246094 23.53125 C 8.457031 25.121094 9.394531 26.902344 9.921875 27.21875 C 9.921875 28.277344 9.933594 28.246094 9.828125 29.515625 C 8.96875 32.226563 0 32.023438 0 38.691406 C 0 38.691406 0 39.683594 0.992188 39.683594 L 5.488281 39.683594 C 7.003906 35.398438 11.121094 33.746094 14.230469 32.519531 C 15.941406 31.847656 17.699219 31.164063 18.230469 30.320313 C 18.289063 29.398438 18.316406 28.613281 18.320313 27.746094 C 17.378906 26.667969 16.679688 24.992188 16.339844 23.5625 C 15.53125 22.964844 14.660156 21.816406 14.445313 19.6875 C 14.355469 18.675781 14.566406 17.832031 14.910156 17.175781 C 14.125 14.730469 14.175781 12.175781 15.035156 9.921875 Z M 37.699219 9.921875 C 36.75 9.921875 35.628906 10 34.566406 10.167969 C 35.363281 12.496094 35.394531 15.28125 34.691406 17.269531 C 35 17.949219 35.144531 18.78125 35.0625 19.6875 L 35.03125 19.75 L 35.03125 19.808594 C 34.738281 21.757813 34.019531 22.945313 33.171875 23.59375 C 32.851563 24.933594 32.195313 26.625 31.28125 27.714844 C 31.285156 28.566406 31.316406 29.335938 31.375 30.320313 C 31.90625 31.164063 33.664063 31.847656 35.375 32.519531 C 38.476563 33.742188 42.597656 35.398438 44.117188 39.683594 L 48.609375 39.683594 C 49.601563 39.683594 49.601563 38.722656 49.601563 38.722656 C 49.605469 31.046875 41.113281 32.867188 39.835938 29.359375 C 39.730469 28.1875 39.714844 28.296875 39.714844 27.125 C 40.246094 26.808594 41.222656 25.023438 41.324219 23.53125 C 41.75 23.53125 42.382813 23.09375 42.597656 21.390625 C 42.703125 20.542969 42.386719 19.914063 42.070313 19.808594 C 43.347656 18.109375 43.140625 11.410156 38.347656 11.410156 Z "/>
</g>
</svg>
