<?xml version="1.0" encoding="UTF-8"?>
<svg xmlns="http://www.w3.org/2000/svg" xmlns:xlink="http://www.w3.org/1999/xlink" width="50pt" height="50pt" viewBox="0 0 50 50" version="1.1">
<g id="surface1">
<path style=" stroke:none;fill-rule:nonzero;fill:#000000;fill-opacity:1;" d="M 43.652344 8.929688 L 5.953125 8.929688 C 3.761719 8.929688 1.984375 10.707031 1.984375 12.898438 L 1.984375 36.707031 C 1.984375 38.894531 3.761719 40.675781 5.953125 40.675781 L 43.652344 40.675781 C 45.839844 40.675781 47.617188 38.894531 47.617188 36.707031 L 47.617188 12.898438 C 47.617188 10.707031 45.839844 8.929688 43.652344 8.929688 Z M 7.9375 33.730469 C 8.175781 29.734375 13.316406 30.316406 14.085938 28.246094 C 14.148438 27.539063 14.085938 27.042969 14.085938 26.394531 C 13.765625 26.222656 12.867188 25.3125 12.726563 24.296875 C 12.726563 24.296875 12 23.953125 11.964844 22.859375 C 11.941406 22.28125 12.347656 21.871094 12.347656 21.871094 C 11.589844 18.960938 11.917969 15.941406 15.8125 15.871094 C 16.785156 15.871094 17.515625 16.34375 17.808594 16.855469 C 20.515625 16.855469 19.8125 20.636719 19.402344 21.871094 C 19.554688 22.023438 19.742188 22.441406 19.742188 23.007813 C 19.742188 23.816406 18.972656 24.296875 18.972656 24.296875 C 18.828125 25.328125 18.101563 26.179688 17.660156 26.394531 C 17.660156 27.042969 17.59375 27.539063 17.660156 28.246094 C 18.429688 30.316406 23.570313 29.734375 23.808594 33.730469 Z M 40.675781 30.753906 L 28.769531 30.753906 C 28.21875 30.753906 27.777344 30.3125 27.777344 29.761719 C 27.777344 29.210938 28.21875 28.769531 28.769531 28.769531 L 40.675781 28.769531 C 41.226563 28.769531 41.667969 29.210938 41.667969 29.761719 C 41.667969 30.3125 41.226563 30.753906 40.675781 30.753906 Z M 40.675781 25.792969 L 28.769531 25.792969 C 28.21875 25.792969 27.777344 25.347656 27.777344 24.800781 C 27.777344 24.253906 28.21875 23.808594 28.769531 23.808594 L 40.675781 23.808594 C 41.226563 23.808594 41.667969 24.253906 41.667969 24.800781 C 41.667969 25.347656 41.226563 25.792969 40.675781 25.792969 Z M 40.675781 20.832031 L 28.769531 20.832031 C 28.21875 20.832031 27.777344 20.386719 27.777344 19.839844 C 27.777344 19.292969 28.21875 18.847656 28.769531 18.847656 L 40.675781 18.847656 C 41.226563 18.847656 41.667969 19.292969 41.667969 19.839844 C 41.667969 20.386719 41.226563 20.832031 40.675781 20.832031 Z "/>
</g>
</svg>
