<?xml version="1.0" encoding="UTF-8"?>
<svg xmlns="http://www.w3.org/2000/svg" xmlns:xlink="http://www.w3.org/1999/xlink" width="50pt" height="50pt" viewBox="0 0 50 50" version="1.1">
<g id="surface1">
<path style=" stroke:none;fill-rule:nonzero;fill:#FFFFFF;fill-opacity:1;" d="M 24.800781 1.984375 C 12.199219 1.984375 1.984375 12.199219 1.984375 24.800781 C 1.984375 37.402344 12.199219 47.617188 24.800781 47.617188 C 37.402344 47.617188 47.617188 37.402344 47.617188 24.800781 C 47.617188 12.199219 37.402344 1.984375 24.800781 1.984375 Z M 24.800781 10.914063 C 26.445313 10.914063 27.777344 12.246094 27.777344 13.890625 C 27.777344 15.53125 26.445313 16.863281 24.800781 16.863281 C 23.160156 16.863281 21.824219 15.53125 21.824219 13.890625 C 21.824219 12.246094 23.160156 10.914063 24.800781 10.914063 Z M 28.769531 37.699219 L 20.832031 37.699219 L 20.832031 35.714844 L 22.816406 35.714844 L 22.816406 22.816406 L 20.832031 22.816406 L 20.832031 20.832031 L 26.785156 20.832031 L 26.785156 35.714844 L 28.769531 35.714844 Z "/>
</g>
</svg>
