<?xml version="1.0" encoding="UTF-8"?>
<svg xmlns="http://www.w3.org/2000/svg" xmlns:xlink="http://www.w3.org/1999/xlink" width="50pt" height="50pt" viewBox="0 0 50 50" version="1.1">
<g id="surface1">
<path style=" stroke:none;fill-rule:nonzero;fill:#FFFFFF;fill-opacity:1;" d="M 24.800781 1.984375 C 12.210938 1.984375 1.984375 12.210938 1.984375 24.800781 C 1.984375 37.390625 12.210938 47.617188 24.800781 47.617188 C 37.390625 47.617188 47.617188 37.390625 47.617188 24.800781 C 47.617188 12.210938 37.390625 1.984375 24.800781 1.984375 Z M 23.808594 4.085938 L 23.808594 12.878906 L 16.710938 12.878906 C 17.085938 11.769531 17.507813 10.742188 17.972656 9.8125 C 19.605469 6.546875 21.675781 4.558594 23.808594 4.085938 Z M 25.792969 4.085938 C 27.929688 4.558594 30 6.546875 31.628906 9.8125 C 32.09375 10.742188 32.515625 11.769531 32.894531 12.878906 L 25.792969 12.878906 Z M 19.03125 4.78125 C 17.960938 5.90625 17.007813 7.308594 16.199219 8.925781 C 15.597656 10.121094 15.082031 11.457031 14.632813 12.878906 L 7.726563 12.878906 C 10.425781 9.019531 14.390625 6.113281 19.03125 4.78125 Z M 30.570313 4.78125 C 35.214844 6.113281 39.179688 9.019531 41.875 12.878906 L 34.96875 12.878906 C 34.519531 11.457031 34.003906 10.121094 33.40625 8.925781 C 32.59375 7.308594 31.640625 5.90625 30.570313 4.78125 Z M 6.464844 14.898438 L 14.058594 14.898438 C 13.390625 17.621094 12.996094 20.632813 12.929688 23.808594 L 4 23.808594 C 4.152344 20.597656 5.019531 17.570313 6.464844 14.898438 Z M 16.109375 14.898438 L 23.808594 14.898438 L 23.808594 23.808594 L 14.910156 23.808594 C 14.988281 20.597656 15.40625 17.570313 16.109375 14.898438 Z M 25.792969 14.898438 L 33.492188 14.898438 C 34.195313 17.570313 34.613281 20.597656 34.691406 23.808594 L 25.792969 23.808594 Z M 35.542969 14.898438 L 43.140625 14.898438 C 44.585938 17.570313 45.453125 20.597656 45.605469 23.808594 L 36.675781 23.808594 C 36.605469 20.632813 36.214844 17.621094 35.542969 14.898438 Z M 4.007813 25.792969 L 12.925781 25.792969 C 12.988281 28.976563 13.390625 31.980469 14.058594 34.703125 L 6.464844 34.703125 C 5.023438 32.03125 4.15625 29.007813 4.007813 25.792969 Z M 14.90625 25.792969 L 23.808594 25.792969 L 23.808594 34.703125 L 16.109375 34.703125 C 15.40625 32.03125 14.980469 29.007813 14.90625 25.792969 Z M 25.792969 25.792969 L 34.695313 25.792969 C 34.621094 29.007813 34.195313 32.03125 33.492188 34.703125 L 25.792969 34.703125 Z M 36.679688 25.792969 L 45.59375 25.792969 C 45.445313 29.007813 44.582031 32.03125 43.140625 34.703125 L 35.542969 34.703125 C 36.214844 31.980469 36.613281 28.976563 36.679688 25.792969 Z M 7.734375 36.726563 L 14.632813 36.726563 C 15.082031 38.148438 15.597656 39.480469 16.199219 40.679688 C 17.007813 42.292969 17.960938 43.699219 19.03125 44.820313 C 14.394531 43.488281 10.433594 40.582031 7.734375 36.726563 Z M 16.710938 36.726563 L 23.808594 36.726563 L 23.808594 45.519531 C 21.675781 45.046875 19.605469 43.058594 17.972656 39.792969 C 17.507813 38.859375 17.085938 37.835938 16.710938 36.726563 Z M 25.792969 36.726563 L 32.894531 36.726563 C 32.515625 37.835938 32.09375 38.859375 31.628906 39.792969 C 30 43.058594 27.929688 45.046875 25.792969 45.519531 Z M 34.96875 36.726563 L 41.867188 36.726563 C 39.171875 40.582031 35.210938 43.488281 30.570313 44.820313 C 31.640625 43.699219 32.59375 42.292969 33.40625 40.679688 C 34.003906 39.480469 34.519531 38.148438 34.96875 36.726563 Z "/>
</g>
</svg>
