<?xml version="1.0" encoding="UTF-8"?>
<svg xmlns="http://www.w3.org/2000/svg" xmlns:xlink="http://www.w3.org/1999/xlink" width="50pt" height="50pt" viewBox="0 0 50 50" version="1.1">
<g id="surface1">
<path style=" stroke:none;fill-rule:nonzero;fill:#000000;fill-opacity:1;" d="M 24.785156 6.929688 C 24.238281 6.941406 23.800781 7.390625 23.808594 7.9375 L 23.808594 10.914063 C 23.804688 11.269531 23.992188 11.601563 24.300781 11.785156 C 24.613281 11.964844 24.992188 11.964844 25.300781 11.785156 C 25.613281 11.601563 25.796875 11.269531 25.792969 10.914063 L 25.792969 7.9375 C 25.796875 7.667969 25.691406 7.410156 25.503906 7.21875 C 25.3125 7.03125 25.054688 6.925781 24.785156 6.929688 Z M 16.371094 10.421875 C 15.96875 10.425781 15.605469 10.667969 15.453125 11.039063 C 15.304688 11.417969 15.390625 11.84375 15.683594 12.125 L 17.789063 14.230469 C 18.035156 14.488281 18.40625 14.59375 18.753906 14.5 C 19.101563 14.410156 19.371094 14.140625 19.460938 13.792969 C 19.554688 13.445313 19.449219 13.074219 19.191406 12.828125 L 17.085938 10.722656 C 16.898438 10.527344 16.640625 10.421875 16.371094 10.421875 Z M 33.199219 10.421875 C 32.941406 10.429688 32.695313 10.535156 32.515625 10.722656 L 30.414063 12.828125 C 30.152344 13.074219 30.046875 13.445313 30.140625 13.792969 C 30.230469 14.140625 30.503906 14.410156 30.851563 14.5 C 31.195313 14.59375 31.566406 14.488281 31.816406 14.230469 L 33.921875 12.125 C 34.214844 11.839844 34.300781 11.40625 34.140625 11.027344 C 33.980469 10.648438 33.609375 10.410156 33.199219 10.421875 Z M 24.800781 13.890625 C 21.519531 13.890625 18.847656 16.558594 18.847656 19.839844 C 18.847656 23.125 21.519531 25.792969 24.800781 25.792969 C 28.082031 25.792969 30.753906 23.125 30.753906 19.839844 C 30.753906 16.558594 28.082031 13.890625 24.800781 13.890625 Z M 12.898438 18.847656 C 12.539063 18.84375 12.207031 19.03125 12.023438 19.339844 C 11.847656 19.652344 11.847656 20.03125 12.023438 20.339844 C 12.207031 20.652344 12.539063 20.835938 12.898438 20.832031 L 15.871094 20.832031 C 16.230469 20.835938 16.5625 20.652344 16.746094 20.339844 C 16.921875 20.03125 16.921875 19.652344 16.746094 19.339844 C 16.5625 19.03125 16.230469 18.84375 15.871094 18.847656 Z M 33.730469 18.847656 C 33.375 18.84375 33.039063 19.03125 32.859375 19.339844 C 32.679688 19.652344 32.679688 20.03125 32.859375 20.339844 C 33.039063 20.652344 33.375 20.835938 33.730469 20.832031 L 36.707031 20.832031 C 37.0625 20.835938 37.394531 20.652344 37.578125 20.339844 C 37.757813 20.03125 37.757813 19.652344 37.578125 19.339844 C 37.394531 19.03125 37.0625 18.84375 36.707031 18.847656 Z M 6.945313 22.816406 C 4.207031 22.816406 1.984375 25.042969 1.984375 27.777344 C 1.984375 30.515625 4.207031 32.738281 6.945313 32.738281 C 9.679688 32.738281 11.90625 30.515625 11.90625 27.777344 C 11.90625 25.042969 9.679688 22.816406 6.945313 22.816406 Z M 42.660156 22.816406 C 39.921875 22.816406 37.699219 25.042969 37.699219 27.777344 C 37.699219 30.515625 39.921875 32.738281 42.660156 32.738281 C 45.394531 32.738281 47.617188 30.515625 47.617188 27.777344 C 47.617188 25.042969 45.394531 22.816406 42.660156 22.816406 Z M 20.832031 27.777344 C 18.09375 27.777344 15.871094 30 15.871094 32.738281 L 15.871094 41.667969 L 33.730469 41.667969 L 33.730469 32.738281 C 33.730469 30 31.507813 27.777344 28.769531 27.777344 Z M 3.96875 34.722656 C 1.773438 34.722656 0 36.496094 0 38.691406 L 0 41.667969 L 13.890625 41.667969 L 13.890625 38.691406 C 13.890625 36.496094 12.113281 34.722656 9.921875 34.722656 Z M 39.683594 34.722656 C 37.488281 34.722656 35.714844 36.496094 35.714844 38.691406 L 35.714844 41.667969 L 49.601563 41.667969 L 49.601563 38.691406 C 49.601563 36.496094 47.828125 34.722656 45.636719 34.722656 Z "/>
</g>
</svg>
