<?xml version="1.0" encoding="UTF-8"?>
<svg xmlns="http://www.w3.org/2000/svg" xmlns:xlink="http://www.w3.org/1999/xlink" width="50pt" height="50pt" viewBox="0 0 50 50" version="1.1">
<g id="surface1">
<path style=" stroke:none;fill-rule:nonzero;fill:#000000;fill-opacity:1;" d="M 24.804688 1.984375 C 15.371094 1.984375 7.273438 7.726563 3.804688 15.910156 C 3.777344 15.953125 3.753906 16 3.734375 16.042969 C 3.65625 16.246094 3.589844 16.449219 3.511719 16.648438 C 3.40625 16.921875 3.296875 17.191406 3.199219 17.46875 C 3.03125 17.972656 2.875 18.480469 2.742188 18.988281 C 2.738281 18.996094 2.738281 19 2.734375 19.003906 C 2.726563 19.035156 2.71875 19.066406 2.710938 19.097656 C 2.574219 19.628906 2.894531 20.171875 3.425781 20.304688 C 3.953125 20.441406 4.496094 20.125 4.636719 19.59375 C 4.636719 19.578125 4.640625 19.566406 4.640625 19.550781 C 4.769531 19.058594 4.921875 18.578125 5.085938 18.101563 C 5.167969 17.847656 5.269531 17.601563 5.363281 17.347656 C 8.363281 9.53125 15.921875 3.96875 24.804688 3.96875 C 36.324219 3.96875 45.640625 13.285156 45.640625 24.800781 C 45.636719 25.15625 45.820313 25.492188 46.132813 25.671875 C 46.441406 25.851563 46.820313 25.851563 47.128906 25.671875 C 47.441406 25.492188 47.625 25.15625 47.621094 24.800781 C 47.621094 12.210938 37.394531 1.984375 24.804688 1.984375 Z M 2.6875 23.902344 L 2.046875 24.519531 L 1.992188 24.863281 L 2.007813 25.796875 L 2.007813 25.824219 L 2.011719 25.855469 L 2.101563 27.09375 L 2.105469 27.121094 L 2.109375 27.144531 L 2.269531 28.378906 L 2.273438 28.402344 L 2.277344 28.429688 L 2.511719 29.644531 L 2.515625 29.671875 L 2.523438 29.699219 L 2.765625 30.683594 L 3.347656 31.359375 L 4.230469 31.300781 L 4.714844 30.550781 L 4.691406 30.207031 L 4.453125 29.238281 L 4.238281 28.117188 L 4.234375 28.097656 L 4.082031 26.921875 L 3.992188 25.722656 L 3.992188 25.703125 L 3.976563 24.832031 L 3.566406 24.042969 Z M 6.007813 34.675781 L 5.167969 34.980469 L 4.910156 35.835938 L 5.03125 36.160156 L 5.382813 36.769531 L 5.398438 36.796875 L 5.410156 36.820313 L 6.09375 37.847656 L 6.121094 37.894531 L 6.859375 38.890625 L 6.875 38.910156 L 7.6875 39.886719 L 7.703125 39.910156 L 7.726563 39.929688 L 8.574219 40.839844 L 9.410156 41.152344 L 10.152344 40.667969 L 10.214844 39.78125 L 10.023438 39.484375 L 9.183594 38.589844 L 9.175781 38.578125 L 8.433594 37.683594 L 7.75 36.761719 L 7.097656 35.777344 L 7.09375 35.765625 L 6.746094 35.167969 Z M 40.070313 39.394531 C 39.808594 39.398438 39.566406 39.503906 39.382813 39.6875 C 39.160156 39.910156 38.925781 40.125 38.691406 40.332031 C 38.410156 40.566406 38.285156 40.933594 38.351563 41.289063 C 38.421875 41.644531 38.679688 41.933594 39.027344 42.046875 C 39.371094 42.15625 39.75 42.066406 40.011719 41.816406 C 40.273438 41.585938 40.523438 41.347656 40.769531 41.109375 C 41.070313 40.824219 41.164063 40.386719 41.003906 40.011719 C 40.847656 39.632813 40.476563 39.386719 40.070313 39.394531 Z M 13.699219 42.628906 C 13.261719 42.65625 12.890625 42.964844 12.789063 43.394531 C 12.6875 43.824219 12.886719 44.265625 13.269531 44.484375 C 14.152344 45 15.078125 45.464844 16.050781 45.867188 C 16.070313 45.875 16.085938 45.882813 16.105469 45.886719 C 16.40625 46.015625 16.714844 46.136719 17.019531 46.242188 C 17.351563 46.371094 17.734375 46.308594 18.007813 46.082031 C 18.285156 45.851563 18.414063 45.492188 18.347656 45.140625 C 18.285156 44.785156 18.035156 44.496094 17.695313 44.378906 C 17.398438 44.269531 17.105469 44.160156 16.816406 44.039063 C 16.816406 44.035156 16.816406 44.035156 16.816406 44.039063 C 15.921875 43.667969 15.074219 43.242188 14.269531 42.769531 C 14.097656 42.667969 13.902344 42.621094 13.699219 42.628906 Z M 33.953125 43.601563 L 33.617188 43.679688 L 32.597656 44.121094 L 32.582031 44.128906 L 31.6875 44.445313 L 31.074219 45.09375 L 31.222656 45.96875 L 32.015625 46.375 L 32.363281 46.316406 L 33.269531 45.988281 L 33.296875 45.976563 L 33.328125 45.964844 L 34.402344 45.5 L 34.972656 44.816406 L 34.769531 43.953125 Z M 25.695313 45.605469 L 25.203125 45.636719 L 23.660156 45.605469 L 23.660156 45.628906 L 22.878906 45.933594 L 22.648438 46.789063 L 23.191406 47.492188 L 23.53125 47.585938 L 23.558594 47.589844 L 23.628906 47.589844 L 25.222656 47.617188 L 25.261719 47.617188 L 25.296875 47.613281 L 25.808594 47.589844 L 26.585938 47.140625 L 26.6875 46.257813 L 26.046875 45.648438 Z "/>
</g>
</svg>
