<?xml version="1.0" encoding="UTF-8"?>
<svg xmlns="http://www.w3.org/2000/svg" xmlns:xlink="http://www.w3.org/1999/xlink" width="52pt" height="52pt" viewBox="0 0 52 52" version="1.1">
<g id="surface1">
<path style=" stroke:none;fill-rule:nonzero;fill:#000000;fill-opacity:1;" d="M 2.585938 0 L 0 2.585938 L 4.554688 10.464844 L 7.507813 10.03125 L 25.542969 28.066406 L 24.003906 29.546875 C 23.222656 30.332031 23.222656 31.53125 24.003906 32.316406 L 24.804688 33.117188 C 25.589844 33.898438 26.796875 33.898438 27.390625 33.117188 L 29.730469 35.453125 C 29.53125 36.640625 29.730469 38.039063 30.714844 39.023438 L 41.363281 49.613281 C 43.535156 51.78125 47.074219 51.78125 49.242188 49.613281 C 51.804688 47.25 51.78125 43.71875 49.613281 41.546875 L 39.023438 30.898438 C 38.039063 29.914063 36.640625 29.523438 35.453125 29.914063 L 32.871094 27.574219 C 33.460938 26.789063 33.460938 25.582031 32.871094 24.992188 L 32.128906 24.25 C 31.347656 23.46875 30.144531 23.46875 29.359375 24.25 L 28.066406 25.542969 L 10.03125 7.507813 L 10.464844 4.554688 Z M 40.996094 0.0625 C 37.109375 -0.261719 31.960938 2.316406 29.546875 4.554688 C 26.582031 7.515625 27.058594 11.402344 29.421875 15.140625 L 25.238281 19.328125 L 28.191406 22.652344 C 29.769531 21.273438 32.09375 21.273438 33.667969 22.652344 L 34.65625 23.636719 L 36.378906 21.914063 C 39.941406 24.003906 43.648438 24.304688 46.472656 21.480469 C 49.226563 18.917969 52.21875 12.601563 50.84375 8.863281 L 45.304688 14.589844 C 44.519531 15.371094 43.316406 15.371094 42.53125 14.589844 L 36.808594 8.863281 C 36.023438 8.078125 36.023438 6.878906 36.808594 6.09375 L 42.53125 0.371094 C 42.039063 0.199219 41.546875 0.109375 40.996094 0.0625 Z M 19.328125 24.621094 L 12.1875 31.761719 C 11.449219 31.585938 10.648438 31.515625 9.847656 31.515625 C 4.332031 31.515625 0 35.847656 0 41.363281 C 0 46.878906 4.332031 51.210938 9.847656 51.210938 C 15.363281 51.210938 19.695313 46.878906 19.695313 41.363281 C 19.695313 40.355469 19.535156 39.378906 19.265625 38.46875 L 23.453125 34.285156 L 22.835938 33.484375 C 21.257813 31.90625 21.273438 29.523438 22.652344 27.945313 Z M 34.59375 33.609375 C 34.839844 33.609375 35.070313 33.652344 35.269531 33.855469 L 46.902344 45.488281 C 47.296875 45.878906 47.296875 46.511719 46.902344 46.902344 C 46.511719 47.296875 45.878906 47.296875 45.488281 46.902344 L 33.855469 35.269531 C 33.460938 34.878906 33.460938 34.246094 33.855469 33.855469 C 34.054688 33.652344 34.347656 33.609375 34.59375 33.609375 Z M 11.203125 36.253906 L 14.957031 40.007813 L 13.601563 45.117188 L 8.496094 46.472656 L 4.738281 42.71875 L 6.09375 37.609375 Z "/>
</g>
</svg>
