<?xml version="1.0" encoding="UTF-8"?>
<svg xmlns="http://www.w3.org/2000/svg" xmlns:xlink="http://www.w3.org/1999/xlink" width="52pt" height="52pt" viewBox="0 0 52 52" version="1.1">
<g id="surface1">
<path style=" stroke:none;fill-rule:nonzero;fill:#000000;fill-opacity:1;" d="M 25.605469 0 C 20.328125 0 16.140625 1.640625 13.480469 4.617188 C 10.816406 7.59375 9.847656 11.503906 9.847656 15.574219 L 9.847656 17.726563 L 15.757813 17.726563 L 15.757813 15.574219 C 15.757813 12.433594 16.464844 10.101563 17.851563 8.554688 C 19.234375 7.007813 21.464844 5.910156 25.605469 5.910156 C 29.753906 5.910156 31.984375 6.964844 33.363281 8.496094 C 34.738281 10.027344 35.453125 12.402344 35.453125 15.574219 L 35.453125 17.726563 L 41.363281 17.726563 L 41.363281 15.574219 C 41.363281 11.480469 40.402344 7.523438 37.730469 4.554688 C 35.0625 1.585938 30.875 0 25.605469 0 Z M 9.847656 19.695313 C 6.585938 19.695313 3.9375 22.34375 3.9375 25.605469 L 3.9375 45.304688 C 3.9375 48.566406 6.585938 51.210938 9.847656 51.210938 L 41.363281 51.210938 C 44.625 51.210938 47.273438 48.566406 47.273438 45.304688 L 47.273438 25.605469 C 47.273438 22.34375 44.625 19.695313 41.363281 19.695313 Z M 13.789063 31.515625 C 15.964844 31.515625 17.726563 33.277344 17.726563 35.453125 C 17.726563 37.632813 15.964844 39.394531 13.789063 39.394531 C 11.609375 39.394531 9.847656 37.632813 9.847656 35.453125 C 9.847656 33.277344 11.609375 31.515625 13.789063 31.515625 Z M 25.605469 31.515625 C 27.785156 31.515625 29.546875 33.277344 29.546875 35.453125 C 29.546875 37.632813 27.785156 39.394531 25.605469 39.394531 C 23.429688 39.394531 21.667969 37.632813 21.667969 35.453125 C 21.667969 33.277344 23.429688 31.515625 25.605469 31.515625 Z M 37.425781 31.515625 C 39.601563 31.515625 41.363281 33.277344 41.363281 35.453125 C 41.363281 37.632813 39.601563 39.394531 37.425781 39.394531 C 35.246094 39.394531 33.484375 37.632813 33.484375 35.453125 C 33.484375 33.277344 35.246094 31.515625 37.425781 31.515625 Z "/>
</g>
</svg>
