<?xml version="1.0" encoding="UTF-8"?>
<svg xmlns="http://www.w3.org/2000/svg" xmlns:xlink="http://www.w3.org/1999/xlink" width="50pt" height="50pt" viewBox="0 0 50 50" version="1.1">
<g id="surface1">
<path style=" stroke:none;fill-rule:nonzero;fill:#000000;fill-opacity:1;" d="M 19.839844 1.984375 C 15.519531 1.984375 12.578125 3.90625 11.300781 7.550781 C 8.730469 8.066406 6.460938 9.765625 5.128906 12.195313 C 3.441406 15.289063 3.378906 19.171875 4.890625 23.285156 C 6.511719 22.019531 8.835938 20.832031 11.90625 20.832031 C 16.234375 20.832031 18.464844 23.015625 18.558594 23.109375 C 18.945313 23.496094 18.945313 24.125 18.558594 24.511719 C 18.171875 24.898438 17.546875 24.898438 17.160156 24.515625 C 17.070313 24.429688 15.351563 22.816406 11.90625 22.816406 C 7.988281 22.816406 5.507813 25.167969 4.433594 26.46875 C 3.886719 27.882813 3.75 29.449219 4.125 30.882813 C 4.625 32.832031 5.972656 34.378906 7.96875 35.324219 C 7.21875 37.097656 7.28125 38.882813 8.164063 40.441406 C 9.273438 42.402344 11.53125 43.726563 14.054688 43.949219 C 14.710938 45.757813 16.261719 47.617188 19.839844 47.617188 C 22.289063 47.617188 23.808594 45.84375 23.808594 42.988281 L 23.808594 8.121094 C 23.808594 4.53125 23.527344 1.984375 19.839844 1.984375 Z M 29.4375 1.984375 C 25.792969 1.984375 25.792969 4.558594 25.792969 8.121094 L 25.792969 42.988281 C 25.792969 46.792969 27.769531 47.605469 29.425781 47.617188 L 29.46875 47.617188 C 31.171875 47.617188 32.746094 46.820313 34.152344 45.257813 C 34.167969 45.261719 34.1875 45.261719 34.199219 45.265625 C 34.542969 45.371094 34.898438 45.445313 35.257813 45.507813 C 35.347656 45.519531 35.433594 45.535156 35.527344 45.546875 C 35.914063 45.601563 36.308594 45.636719 36.707031 45.636719 C 37.628906 45.636719 38.519531 45.492188 39.355469 45.230469 C 39.914063 45.058594 40.453125 44.832031 40.957031 44.554688 C 41.347656 44.34375 41.714844 44.09375 42.066406 43.824219 C 42.136719 43.773438 42.207031 43.726563 42.269531 43.675781 L 47.910156 49.3125 L 49.3125 47.910156 L 43.675781 42.269531 C 43.726563 42.207031 43.773438 42.136719 43.824219 42.066406 C 44.09375 41.714844 44.34375 41.347656 44.554688 40.957031 C 44.558594 40.957031 44.554688 40.957031 44.554688 40.957031 C 44.691406 40.707031 44.816406 40.445313 44.933594 40.179688 C 44.933594 40.179688 44.929688 40.179688 44.933594 40.179688 C 45.046875 39.910156 45.148438 39.636719 45.230469 39.355469 C 45.316406 39.078125 45.394531 38.792969 45.453125 38.503906 C 45.574219 37.921875 45.636719 37.324219 45.636719 36.707031 C 45.636719 36.363281 45.613281 36.023438 45.574219 35.695313 C 45.566406 35.613281 45.550781 35.539063 45.539063 35.460938 C 45.5 35.199219 45.453125 34.941406 45.394531 34.6875 C 45.378906 34.613281 45.355469 34.539063 45.339844 34.46875 C 45.269531 34.210938 45.191406 33.957031 45.105469 33.710938 C 45.085938 33.648438 45.066406 33.589844 45.042969 33.53125 C 44.933594 33.25 44.808594 32.972656 44.675781 32.703125 C 44.671875 32.695313 44.667969 32.683594 44.664063 32.675781 C 46.105469 30.292969 45.660156 27.457031 44.375 25.394531 C 43.4375 26.691406 42.242188 27.90625 40.726563 28.742188 C 39.730469 28.238281 38.632813 27.917969 37.46875 27.816406 C 37.492188 27.8125 37.511719 27.796875 37.535156 27.792969 C 42.089844 27.035156 44.121094 22.199219 45.210938 19.605469 C 45.273438 19.445313 45.335938 19.3125 45.394531 19.175781 C 45.726563 16.519531 45.351563 14.070313 44.21875 11.996094 C 42.929688 9.640625 40.792969 8.046875 38.300781 7.550781 C 37.539063 5.5 35.375 1.984375 29.4375 1.984375 Z M 18.847656 10.914063 C 19.394531 10.914063 19.839844 11.359375 19.839844 11.90625 C 19.839844 14.195313 18.285156 16.863281 13.890625 16.863281 C 13.34375 16.863281 12.898438 16.417969 12.898438 15.871094 C 12.898438 15.328125 13.34375 14.882813 13.890625 14.882813 C 17.46875 14.882813 17.855469 12.800781 17.855469 11.90625 C 17.855469 11.359375 18.304688 10.914063 18.847656 10.914063 Z M 31.746094 12.898438 C 32.292969 12.898438 32.738281 13.34375 32.738281 13.890625 C 32.738281 15.363281 33.992188 17.855469 38.691406 17.855469 C 39.238281 17.855469 39.683594 18.304688 39.683594 18.847656 C 39.683594 19.394531 39.238281 19.839844 38.691406 19.839844 C 32.414063 19.839844 30.753906 15.945313 30.753906 13.890625 C 30.753906 13.34375 31.199219 12.898438 31.746094 12.898438 Z M 36.707031 29.761719 C 37.1875 29.761719 37.652344 29.8125 38.101563 29.902344 C 40.8125 30.460938 42.953125 32.597656 43.511719 35.3125 C 43.601563 35.761719 43.652344 36.226563 43.652344 36.707031 C 43.652344 37.1875 43.601563 37.652344 43.511719 38.101563 C 42.953125 40.8125 40.8125 42.953125 38.101563 43.511719 C 37.652344 43.601563 37.1875 43.652344 36.707031 43.652344 C 36.226563 43.652344 35.761719 43.601563 35.3125 43.511719 C 32.597656 42.953125 30.460938 40.8125 29.902344 38.101563 C 29.8125 37.652344 29.761719 37.1875 29.761719 36.707031 C 29.761719 36.226563 29.8125 35.761719 29.902344 35.3125 C 30.460938 32.597656 32.597656 30.460938 35.3125 29.902344 C 35.761719 29.8125 36.226563 29.761719 36.707031 29.761719 Z M 12.066406 29.777344 C 17.429688 30.667969 18.847656 35.351563 18.847656 37.699219 C 18.847656 38.246094 18.402344 38.691406 17.855469 38.691406 C 17.3125 38.691406 16.863281 38.246094 16.863281 37.699219 C 16.863281 37.488281 16.808594 32.574219 11.742188 31.730469 C 11.199219 31.640625 10.835938 31.132813 10.929688 30.589844 C 11.015625 30.050781 11.519531 29.683594 12.066406 29.777344 Z "/>
</g>
</svg>
