<?xml version="1.0" encoding="UTF-8"?>
<svg xmlns="http://www.w3.org/2000/svg" xmlns:xlink="http://www.w3.org/1999/xlink" width="50pt" height="50pt" viewBox="0 0 50 50" version="1.1">
<g id="surface1">
<path style=" stroke:none;fill-rule:nonzero;fill:#000000;fill-opacity:1;" d="M 32.738281 3.96875 L 32.738281 8.929688 C 32.738281 10.019531 31.847656 10.914063 30.753906 10.914063 L 18.847656 10.914063 C 17.757813 10.914063 16.863281 10.019531 16.863281 8.929688 L 16.863281 3.96875 C 16.863281 2.875 17.757813 1.984375 18.847656 1.984375 L 30.753906 1.984375 C 31.847656 1.984375 32.738281 2.875 32.738281 3.96875 Z M 14.882813 16.863281 L 14.882813 18.847656 L 25.792969 18.847656 L 25.792969 16.863281 Z M 14.882813 24.800781 L 25.792969 24.800781 L 25.792969 22.816406 L 14.882813 22.816406 Z M 14.882813 28.769531 L 14.882813 30.753906 L 25.792969 30.753906 L 25.792969 28.769531 Z M 14.882813 34.722656 L 14.882813 36.707031 L 25.792969 36.707031 L 25.792969 34.722656 Z M 30.753906 16.863281 L 30.753906 18.847656 L 34.722656 18.847656 L 34.722656 16.863281 Z M 34.722656 22.816406 L 30.753906 22.816406 L 30.753906 24.800781 L 34.722656 24.800781 Z M 30.753906 28.769531 L 30.753906 30.753906 L 34.722656 30.753906 L 34.722656 28.769531 Z M 34.722656 34.722656 L 30.753906 34.722656 L 30.753906 36.707031 L 34.722656 36.707031 Z M 41.667969 3.96875 L 34.722656 3.96875 L 34.722656 8.929688 L 38.691406 8.929688 L 38.691406 42.660156 L 10.914063 42.660156 L 10.914063 8.929688 L 14.882813 8.929688 L 14.882813 3.96875 L 7.9375 3.96875 C 6.84375 3.96875 5.953125 4.859375 5.953125 5.953125 L 5.953125 45.636719 C 5.953125 46.726563 6.84375 47.617188 7.9375 47.617188 L 41.667969 47.617188 C 42.757813 47.617188 43.652344 46.726563 43.652344 45.636719 L 43.652344 5.953125 C 43.652344 4.859375 42.757813 3.96875 41.667969 3.96875 Z "/>
</g>
</svg>
