<?xml version="1.0" encoding="UTF-8"?>
<svg xmlns="http://www.w3.org/2000/svg" xmlns:xlink="http://www.w3.org/1999/xlink" width="64pt" height="64pt" viewBox="0 0 64 64" version="1.1">
<g id="surface1">
<path style=" stroke:none;fill-rule:nonzero;fill:#000000;fill-opacity:1;" d="M 32 10 C 24.289063 10 18 16.289063 18 24 C 18 28.8125 20.460938 33.078125 24.179688 35.59375 C 17.03125 38.648438 12 45.75 12 54 L 16 54 C 16 49.523438 17.820313 45.492188 20.773438 42.59375 L 25.570313 48.6875 L 33.109375 43.664063 L 30.890625 40.335938 L 26.429688 43.3125 L 23.960938 40.171875 C 26.320313 38.796875 29.0625 38 32 38 C 39.710938 38 46 31.710938 46 24 C 46 16.289063 39.710938 10 32 10 Z M 32 14 C 37.546875 14 42 18.453125 42 24 C 42 29.546875 37.546875 34 32 34 C 26.453125 34 22 29.546875 22 24 C 22 18.453125 26.453125 14 32 14 Z M 48 36 L 48 40.21875 C 46.734375 40.476563 45.5625 40.992188 44.523438 41.6875 L 41.507813 38.6875 L 38.6875 41.515625 L 41.6875 44.507813 C 40.984375 45.5625 40.460938 46.726563 40.203125 48 L 36 48 L 36 52 L 40.203125 52 C 40.460938 53.273438 40.984375 54.4375 41.6875 55.492188 L 38.6875 58.484375 L 41.507813 61.3125 L 44.523438 58.3125 C 45.5625 59.007813 46.734375 59.523438 48 59.78125 L 48 64 L 52 64 L 52 59.78125 C 53.265625 59.523438 54.4375 59.007813 55.476563 58.3125 L 58.492188 61.3125 L 61.3125 58.484375 L 58.3125 55.492188 C 59.015625 54.4375 59.539063 53.273438 59.796875 52 L 64 52 L 64 48 L 59.796875 48 C 59.539063 46.726563 59.015625 45.5625 58.3125 44.507813 L 61.3125 41.515625 L 58.492188 38.6875 L 55.476563 41.6875 C 54.4375 40.992188 53.265625 40.476563 52 40.21875 L 52 36 Z M 50 44 C 53.335938 44 56 46.664063 56 50 C 56 53.335938 53.335938 56 50 56 C 46.664063 56 44 53.335938 44 50 C 44 46.664063 46.664063 44 50 44 Z M 50 48 C 48.898438 48 48 48.898438 48 50 C 48 51.101563 48.898438 52 50 52 C 51.101563 52 52 51.101563 52 50 C 52 48.898438 51.101563 48 50 48 Z "/>
</g>
</svg>
