<?xml version="1.0" encoding="UTF-8"?>
<svg xmlns="http://www.w3.org/2000/svg" xmlns:xlink="http://www.w3.org/1999/xlink" width="48pt" height="48pt" viewBox="0 0 48 48" version="1.1">
<g id="surface1">
<path style=" stroke:none;fill-rule:nonzero;fill:#FFFFFF;fill-opacity:1;" d="M 22 0 L 22 10 L 26 10 L 26 4.375 C 36.125 5.414063 44 13.578125 44 24 C 44 35.132813 35.132813 44 24 44 C 12.867188 44 4 35.132813 4 24 C 4 18.3125 6.171875 13.515625 10 9.875 L 7.25 6.9375 C 2.671875 11.296875 0 17.28125 0 24 C 0 37.273438 10.726563 48 24 48 C 37.273438 48 48 37.273438 48 24 C 48 10.726563 37.273438 0 24 0 Z M 11.1875 11.1875 L 20.0625 24.625 C 20.367188 26.53125 22.015625 28 24 28 C 26.203125 28 28 26.203125 28 24 C 28 22.015625 26.53125 20.367188 24.625 20.0625 Z "/>
</g>
</svg>
