<?xml version="1.0" encoding="UTF-8"?>
<svg xmlns="http://www.w3.org/2000/svg" xmlns:xlink="http://www.w3.org/1999/xlink" width="50pt" height="50pt" viewBox="0 0 50 50" version="1.1">
<g id="surface1">
<path style=" stroke:none;fill-rule:nonzero;fill:#000000;fill-opacity:1;" d="M 24.800781 1.984375 C 12.210938 1.984375 1.984375 12.210938 1.984375 24.800781 C 1.984375 36.8125 11.292969 46.660156 23.078125 47.546875 C 23.097656 47.550781 23.121094 47.554688 23.144531 47.554688 C 23.691406 47.59375 24.242188 47.617188 24.800781 47.617188 C 25.359375 47.617188 25.910156 47.59375 26.460938 47.554688 C 26.484375 47.554688 26.507813 47.550781 26.527344 47.546875 C 38.3125 46.660156 47.617188 36.8125 47.617188 24.800781 C 47.617188 12.210938 37.390625 1.984375 24.800781 1.984375 Z M 24.800781 3.96875 C 36.320313 3.96875 45.636719 13.285156 45.636719 24.800781 C 45.636719 30.503906 43.34375 35.660156 39.644531 39.417969 C 37.941406 38.363281 35.550781 38.117188 33.773438 37.523438 C 31.761719 36.859375 29.375 35.839844 28.769531 34.722656 C 31.167969 34.421875 36.707031 33.394531 36.707031 31.136719 C 36.707031 30.859375 36.589844 30.589844 36.378906 30.402344 C 35.699219 29.785156 35.738281 26.558594 35.769531 23.964844 C 35.832031 19.035156 35.894531 13.449219 33.011719 10.632813 C 31.878906 9.523438 30.390625 8.960938 28.582031 8.953125 C 27.664063 8.316406 26.347656 7.960938 24.835938 7.960938 L 24.820313 7.960938 C 14.476563 8.703125 14.230469 18.351563 14.0625 24.738281 C 14 27.144531 13.929688 29.867188 13.234375 30.488281 C 13.019531 30.675781 12.898438 30.945313 12.898438 31.230469 C 12.898438 33.382813 16.878906 34.214844 20.832031 34.722656 C 20.273438 35.882813 16.902344 37.03125 14.882813 37.699219 C 13.125 38.277344 11.460938 38.402344 9.949219 39.40625 C 6.25 35.648438 3.96875 30.5 3.96875 24.800781 C 3.96875 13.285156 13.285156 3.96875 24.800781 3.96875 Z "/>
</g>
</svg>
