<?xml version="1.0" encoding="UTF-8"?>
<svg xmlns="http://www.w3.org/2000/svg" xmlns:xlink="http://www.w3.org/1999/xlink" width="50pt" height="50pt" viewBox="0 0 50 50" version="1.1">
<g id="surface1">
<path style=" stroke:none;fill-rule:nonzero;fill:#000000;fill-opacity:1;" d="M 29.605469 31.25 L 29.605469 27.960938 C 30.34375 27.59375 32.464844 25.074219 32.683594 23.101563 C 33.265625 23.058594 34.179688 22.523438 34.449219 20.417969 C 34.597656 19.28125 34.019531 18.644531 33.671875 18.445313 C 33.671875 18.445313 34.539063 16.792969 34.539063 14.800781 C 34.539063 10.8125 32.972656 7.402344 29.605469 7.402344 C 29.605469 7.402344 28.4375 4.933594 24.671875 4.933594 C 17.695313 4.933594 14.800781 9.414063 14.800781 14.800781 C 14.800781 16.621094 15.671875 18.445313 15.671875 18.445313 C 15.324219 18.644531 14.746094 19.289063 14.894531 20.417969 C 15.164063 22.523438 16.074219 23.058594 16.660156 23.101563 C 16.878906 25.074219 18.996094 27.59375 19.738281 27.960938 L 19.738281 31.25 C 18.09375 36.183594 4.933594 32.894531 4.933594 44.40625 L 44.40625 44.40625 C 44.40625 32.894531 31.25 36.183594 29.605469 31.25 Z "/>
</g>
</svg>
